<?xml version="1.0" encoding="utf-8"?>
<!-- Generator: Adobe Illustrator 25.3.1, SVG Export Plug-In . SVG Version: 6.00 Build 0)  -->
<svg version="1.1"
	 id="Layer_1" xmlns:cc="http://creativecommons.org/ns#" xmlns:dc="http://purl.org/dc/elements/1.1/" xmlns:rdf="http://www.w3.org/1999/02/22-rdf-syntax-ns#"
	 xmlns="http://www.w3.org/2000/svg" xmlns:xlink="http://www.w3.org/1999/xlink" x="0px" y="0px" viewBox="0 0 306.5 64"
	 style="enable-background:new 0 0 306.5 64;" xml:space="preserve">
<style type="text/css">
	.st0{fill:#FFFFFF;}
	.st1{fill:#F7931A;}
</style>
<g transform="translate(-289.60744,-317.50471)">
	<g id="XMLID_1_">
		<g>
			<path class="st0" d="M593.9,342.3c2.4,3.7,2.8,8.7,1.3,15.1l-5.5,23h-12.1l5.3-22.5c0.3-1.4,0.6-2.8,0.8-4.1
				c0.2-1.3,0.2-2.5-0.1-3.5c-0.2-1-0.7-1.8-1.5-2.4c-0.8-0.6-2-0.9-3.6-0.9c-1.6,0-3.2,0.2-4.8,0.5l-7.9,33h-12.1l9.8-40.6
				c0.9-0.3,1.9-0.6,3-0.9c1.1-0.3,2.3-0.7,3.7-1c1.4-0.3,2.9-0.5,4.6-0.7s3.6-0.3,5.8-0.3C587.2,336.8,591.5,338.6,593.9,342.3z"/>
			<path class="st0" d="M559,324.4c0,1.1-0.2,2.2-0.7,3.2s-1.1,1.9-1.8,2.6c-0.8,0.7-1.6,1.3-2.6,1.7c-1,0.4-2.1,0.6-3.2,0.6
				c-1.7,0-3.2-0.5-4.5-1.5c-1.3-1-2-2.5-2-4.6c0-1.1,0.2-2.2,0.7-3.2c0.5-1,1.1-1.9,1.8-2.6c0.8-0.7,1.6-1.3,2.6-1.8
				c1-0.4,2.1-0.6,3.2-0.6c1.7,0,3.2,0.5,4.5,1.5C558.3,320.8,559,322.4,559,324.4z"/>
			<polygon class="st0" points="555,337.8 544.8,380.4 532.8,380.4 543,337.8 			"/>
			<path class="st0" d="M530.7,347.1c0.7,2.1,1,4.5,1,7.1c0,3.2-0.5,6.5-1.5,9.7c-1,3.2-2.5,6.1-4.5,8.7c-2,2.6-4.5,4.7-7.5,6.3
				c-3,1.7-6.5,2.5-10.4,2.5c-2.9,0-5.3-0.4-7.5-1.3c-2.1-0.9-3.8-2.1-5.2-3.7c-1.4-1.6-2.4-3.4-3.1-5.5c-0.7-2.1-1.1-4.5-1.1-7.1
				c0-3.2,0.5-6.5,1.6-9.7c1-3.2,2.6-6.2,4.7-8.7c2-2.6,4.6-4.7,7.5-6.4c3-1.6,6.4-2.5,10.2-2.5c2.8,0,5.3,0.4,7.4,1.3
				c2.1,0.9,3.9,2.1,5.3,3.6C529,343.1,530,345,530.7,347.1z M519.1,360.7c0.5-1.9,0.7-3.6,0.7-5.3c0-2.7-0.4-4.8-1.3-6.3
				c-0.9-1.5-2.4-2.3-4.7-2.3c-1.8,0-3.3,0.5-4.7,1.5c-1.4,1-2.5,2.3-3.4,3.9c-0.9,1.6-1.6,3.3-2.1,5.1c-0.5,1.9-0.7,3.6-0.7,5.3
				c0,2.7,0.4,4.8,1.3,6.3c0.9,1.5,2.4,2.3,4.7,2.3c1.8,0,3.3-0.5,4.7-1.5c1.3-1,2.5-2.3,3.4-3.9C518,364.3,518.6,362.6,519.1,360.7
				z"/>
			<path class="st0" d="M491.8,339.1l-4.1,9.4c-1.1-0.4-2.2-0.8-3.4-1.2c-1.2-0.4-2.6-0.5-4.2-0.5c-4,0-7.2,1.4-9.5,4.1
				c-2.4,2.8-3.5,6.5-3.5,11.1c0,2.8,0.6,5,1.8,6.7c1.2,1.7,3.4,2.6,6.6,2.6c1.6,0,3.1-0.2,4.5-0.5c1.5-0.3,2.8-0.7,3.9-1.2l0.9,9.6
				c-1.5,0.6-3.2,1.1-5,1.6c-1.8,0.5-4,0.7-6.6,0.7c-3.4,0-6.2-0.5-8.5-1.5c-2.3-1-4.2-2.3-5.8-3.9c-1.5-1.6-2.6-3.6-3.3-5.8
				c-0.7-2.2-1-4.5-1-7c0-3.7,0.6-7.1,1.8-10.4c1.2-3.2,2.9-6.1,5.1-8.5c2.2-2.4,4.9-4.3,8.1-5.8c3.1-1.4,6.7-2.1,10.6-2.1
				c2.4,0,4.6,0.2,6.5,0.7C488.5,337.8,490.2,338.4,491.8,339.1z"/>
			<path class="st0" d="M455.1,337.8l-2.4,9.9h-13.4l-3.6,14.9c-0.3,1.2-0.5,2.4-0.6,3.5c-0.1,1.1,0.1,2,0.4,2.8
				c0.3,0.8,0.9,1.4,1.7,1.8c0.8,0.4,2,0.6,3.6,0.6c1.3,0,2.5-0.1,3.8-0.4c1.2-0.2,2.4-0.6,3.7-1l0.9,9.2c-1.6,0.6-3.4,1.1-5.3,1.5
				c-1.9,0.4-4.1,0.6-6.7,0.6c-3.7,0-6.6-0.5-8.7-1.6c-2.1-1.1-3.5-2.6-4.4-4.5c-0.9-1.9-1.2-4.1-1.1-6.6c0.1-2.5,0.5-5.1,1.1-7.9
				l7.9-33.5l12.6-2l-3.1,12.6H455.1z"/>
			<path class="st0" d="M425.6,324.4c0,1.1-0.2,2.2-0.7,3.2c-0.4,1-1.1,1.9-1.8,2.6c-0.8,0.7-1.6,1.3-2.6,1.7
				c-1,0.4-2.1,0.6-3.2,0.6c-1.7,0-3.2-0.5-4.5-1.5c-1.4-1-2-2.5-2-4.6c0-1.1,0.2-2.2,0.7-3.2s1.1-1.9,1.8-2.6s1.6-1.3,2.6-1.8
				c1-0.4,2.1-0.6,3.2-0.6c1.7,0,3.2,0.5,4.5,1.5C424.9,320.8,425.6,322.4,425.6,324.4z"/>
			<polygon class="st0" points="421.7,337.8 411.5,380.4 399.5,380.4 409.6,337.8 			"/>
			<path class="st0" d="M397.6,347.5c0.6,2.1,0.9,4.4,0.9,6.8c0,3.7-0.7,7.2-2.1,10.6c-1.4,3.3-3.2,6.2-5.6,8.7
				c-2.4,2.5-5.2,4.4-8.4,5.8c-3.2,1.4-6.8,2.1-10.5,2.1c-0.5,0-1.4,0-2.6,0c-1.2,0-2.6-0.2-4.2-0.4c-1.6-0.2-3.2-0.5-5-1
				c-1.8-0.4-3.4-1-5-1.8l14-58.9l12.6-1.9l-5,20.9c1.1-0.5,2.1-0.9,3.2-1.1c1.1-0.3,2.2-0.4,3.5-0.4c2.6,0,4.8,0.5,6.7,1.4
				c1.9,0.9,3.5,2.2,4.7,3.7C396,343.5,397,345.4,397.6,347.5z M385.4,361.3c0.7-2,1.1-4,1.1-6.1c0-2.6-0.4-4.6-1.3-6.1
				c-0.9-1.5-2.5-2.2-4.8-2.2c-0.8,0-1.7,0.1-3,0.4c-1.2,0.3-2.3,0.9-3.3,1.7l-5.3,22.2c0.3,0.1,0.6,0.1,0.8,0.2
				c0.2,0.1,0.5,0.1,0.8,0.1c0.3,0,0.6,0.1,1,0.1s0.9,0,1.5,0c1.9,0,3.7-0.5,5.3-1.4c1.7-0.9,3.1-2.1,4.3-3.7
				C383.7,364.9,384.7,363.2,385.4,361.3z"/>
			<path class="st0" d="M328.7,336.9c4.4,1.5,7.7,3.8,7,8.1c-0.5,3.1-2.2,4.6-4.5,5.1c3.1,1.6,4.8,4.2,3.2,8.5
				c-1.9,5.4-6.4,5.9-12.4,4.7l-1.4,5.8l-3.5-0.9l1.4-5.7c-0.9-0.2-1.8-0.5-2.8-0.7l-1.4,5.8l-3.5-0.9l1.5-5.8
				c-0.8-0.2-1.7-0.4-2.5-0.6l-4.6-1.1l1.7-4c0,0,2.6,0.7,2.5,0.6c1,0.2,1.4-0.4,1.6-0.8l2.3-9.2c0.1,0,0.2,0.1,0.4,0.1
				c-0.1-0.1-0.3-0.1-0.4-0.1l1.6-6.6c0-0.7-0.2-1.7-1.6-2c0,0-2.5-0.6-2.5-0.6l0.9-3.8l4.8,1.2v0c0.7,0.2,1.5,0.4,2.2,0.5l1.4-5.8
				l3.5,0.9l-1.4,5.6c0.9,0.2,1.9,0.4,2.8,0.7l1.4-5.6l3.5,0.9L328.7,336.9z M328.8,344.9c1-4.1-5.4-5.1-7.3-5.6l-1.8,7
				C321.7,346.8,327.8,348.9,328.8,344.9z M327.7,356.2c1.1-4.5-6.5-5.7-8.9-6.3l-1.9,7.7C319.3,358.2,326.6,360.6,327.7,356.2z"/>
			<path class="st1" d="M321.4,339.3c2,0.5,8.4,1.4,7.3,5.6c-1,4-7.1,1.9-9.1,1.5L321.4,339.3z"/>
			<path class="st1" d="M318.8,349.9c2.4,0.6,10,1.8,8.9,6.3c-1.1,4.4-8.4,2-10.8,1.4L318.8,349.9z"/>
			<path class="st1" d="M317.1,368.3l3.5,0.9l1.4-5.8c6,1.1,10.5,0.7,12.4-4.7c1.5-4.4-0.1-6.9-3.2-8.5c2.3-0.5,4-2,4.5-5.1
				c0.6-4.3-2.6-6.6-7-8.1l1.4-5.8l-3.5-0.9l-1.4,5.6c-0.9-0.2-1.9-0.4-2.8-0.7l1.4-5.6l-3.5-0.9l-1.4,5.8c-0.8-0.2-1.5-0.4-2.2-0.5
				v0l-4.8-1.2l-0.9,3.8c0,0,2.5,0.6,2.5,0.6c1.4,0.4,1.7,1.3,1.6,2l-1.6,6.6c0.1,0,0.2,0.1,0.4,0.1c-0.1,0-0.2-0.1-0.4-0.1
				l-2.3,9.2c-0.2,0.4-0.6,1.1-1.6,0.8c0,0-2.5-0.6-2.5-0.6l-1.7,4l4.6,1.1c0.8,0.2,1.7,0.4,2.5,0.6l-1.5,5.8l3.5,0.9l1.4-5.8
				c1,0.3,1.9,0.5,2.8,0.7L317.1,368.3z M329.3,318.5c17.1,4.3,27.6,21.6,23.3,38.8c-4.3,17.1-21.6,27.6-38.8,23.3
				c-17.1-4.3-27.6-21.6-23.3-38.8C294.8,324.6,312.2,314.2,329.3,318.5z"/>
		</g>
		<g>
		</g>
	</g>
</g>
</svg>
